# xmcd
#
# Track frame offsets:
#	150
#	17352
#	28597
#	40517
#	53145
#	68778
#	78447
#	86705
#	99734
#	108765
#	116405
#	129554
#	143848
#	159375
#	170860
#	187483
#	202698
#	221516
#
# Disc length: 3192 seconds
#
# Revision: 1
# Processed by: cddbd v1.5.2PL0 Copyright (c) Steve Scherf et al.
# Submitted via: audiograbber 1.83.01
#
DISCID=f00c7612
DTITLE=Michael Hortig - Deep End
DYEAR=2015
DGENRE=Blues
TTITLE0=Fo Day Blues
TTITLE1=Sweet Patunia
TTITLE2=The Fives
TTITLE3=Black Girl
TTITLE4=Deep End
TTITLE5=Blues in St. Louis
TTITLE6=Southside Stomp
TTITLE7=Blues for Hans
TTITLE8=Buck's Got To Go
TTITLE9=Four o'Clock Blues
TTITLE10=Hangover
TTITLE11=Able Street Stomp
TTITLE12=Texas Blues
TTITLE13=The Cows
TTITLE14=Blues 'bout my two Girls
TTITLE15=How Long, Mose
TTITLE16=Goin Down Hayride
TTITLE17=Arthur's in my Heart Blues
EXTD=
EXTT0=
EXTT1=
EXTT2=
EXTT3=
EXTT4=
EXTT5=
EXTT6=
EXTT7=
EXTT8=
EXTT9=
EXTT10=
EXTT11=
EXTT12=
EXTT13=
EXTT14=
EXTT15=
EXTT16=
EXTT17=
PLAYORDER=
